<svg width="24" height="25" viewBox="0 0 24 25" fill="none" xmlns="http://www.w3.org/2000/svg">
<path fill-rule="evenodd" clip-rule="evenodd" d="M10.5001 19.1406C10.5001 19.9691 11.1716 20.6406 12.0001 20.6406C12.8285 20.6406 13.5001 19.9691 13.5001 19.1406V14.1406H18.5C19.3284 14.1406 20 13.469 20 12.6406C20 11.8122 19.3284 11.1406 18.5 11.1406H13.5001V6.14062C13.5001 5.3122 12.8285 4.64062 12.0001 4.64062C11.1716 4.64062 10.5001 5.3122 10.5001 6.14062V11.1406H5.5C4.67157 11.1406 4 11.8122 4 12.6406C4 13.469 4.67157 14.1406 5.5 14.1406H10.5001V19.1406Z" fill="#EC6C3A"/>
</svg>
