<svg width="25" height="24" viewBox="0 0 25 24" fill="none" xmlns="http://www.w3.org/2000/svg">
<path fill-rule="evenodd" clip-rule="evenodd" d="M5.2395 8C4.68722 8 4.2395 7.55228 4.2395 7C4.2395 6.44772 4.68722 6 5.2395 6H19.2395C19.7918 6 20.2395 6.44772 20.2395 7C20.2395 7.55228 19.7918 8 19.2395 8H5.2395ZM4.2395 12C4.2395 12.5523 4.68722 13 5.2395 13H19.2395C19.7918 13 20.2395 12.5523 20.2395 12C20.2395 11.4477 19.7918 11 19.2395 11H5.2395C4.68722 11 4.2395 11.4477 4.2395 12ZM4.2395 17C4.2395 17.5523 4.68722 18 5.2395 18H19.2395C19.7918 18 20.2395 17.5523 20.2395 17C20.2395 16.4477 19.7918 16 19.2395 16H5.2395C4.68722 16 4.2395 16.4477 4.2395 17Z" fill="#212121"/>
</svg>
