<svg width="24" height="25" viewBox="0 0 24 25" fill="none" xmlns="http://www.w3.org/2000/svg">
<g clip-path="url(#clip0_3246_22586)">
<path fill-rule="evenodd" clip-rule="evenodd" d="M19.2642 7.60369C19.5571 7.89658 19.5571 8.37146 19.2642 8.66435L18.0594 9.86916C17.7665 10.162 17.2916 10.162 16.9987 9.86916L14.8344 7.70486C14.5415 7.41197 14.5415 6.93709 14.8344 6.6442L16.0392 5.4394C16.3321 5.1465 16.807 5.1465 17.0999 5.4394L19.2642 7.60369ZM7.90559 19.8221C8.06534 19.7988 8.2133 19.7245 8.32746 19.6103L15.7138 12.224C16.0066 11.9312 16.0067 11.4565 15.714 11.1636L13.5415 8.98907C13.2486 8.69592 12.7735 8.69585 12.4805 8.98893L5.09851 16.3735C4.98373 16.4884 4.90931 16.6373 4.88642 16.798L4.52381 19.3442C4.45318 19.84 4.87917 20.2645 5.37478 20.192L7.90559 19.8221Z" fill="#212121"/>
<path fill-rule="evenodd" clip-rule="evenodd" d="M15.9984 4.86147C16.2912 4.57065 16.7638 4.57096 17.0562 4.86215L19.8474 7.64207C20.1412 7.93467 20.1418 8.41015 19.8488 8.70351L18.019 10.5353C17.7262 10.8284 17.2511 10.8286 16.9581 10.5356L14.1655 7.74294C13.8719 7.44936 13.8727 6.97312 14.1672 6.68052L15.9984 4.86147ZM15.4112 6.68071C15.1178 6.97365 15.1178 7.44904 15.4111 7.74205L16.9583 9.28768C17.2512 9.58032 17.7259 9.5802 18.0186 9.28741L18.6033 8.70277C18.8962 8.40988 18.8962 7.935 18.6033 7.64211L17.0573 6.09614C16.7646 5.8034 16.29 5.80322 15.9971 6.09574L15.4112 6.68071ZM12.4283 8.405C12.7211 8.11219 13.1958 8.1121 13.4888 8.40479L16.2943 11.2081C16.5874 11.5009 16.5875 11.9759 16.2946 12.2689L8.4834 20.0828C8.36904 20.1972 8.22077 20.2715 8.06069 20.2948L4.7898 20.7695C4.29457 20.8413 3.86919 20.4173 3.93953 19.9218L4.40536 16.6406C4.42821 16.4797 4.50268 16.3306 4.61759 16.2157L12.4283 8.405ZM13.4889 9.65486C13.1959 9.36276 12.7217 9.36307 12.4291 9.65556L5.44991 16.6322C5.33513 16.7469 5.26067 16.8958 5.23769 17.0565L4.9767 18.8818C4.90587 19.3772 5.33087 19.8017 5.8262 19.7303L7.64366 19.4682C7.80403 19.4451 7.9526 19.3706 8.06713 19.256L15.0482 12.2698C15.3413 11.9765 15.3408 11.5012 15.0472 11.2085L13.4889 9.65486Z" fill="#212121"/>
</g>
<defs>
<clipPath id="clip0_3246_22586">
<rect width="24" height="24" fill="white" transform="translate(0 0.634766)"/>
</clipPath>
</defs>
</svg>
