<svg width="24" height="24" viewBox="0 0 24 24" fill="none" xmlns="http://www.w3.org/2000/svg">
<path fill-rule="evenodd" clip-rule="evenodd" d="M15.078 10.7917C15.078 13.159 13.159 15.078 10.7917 15.078C8.42438 15.078 6.50531 13.159 6.50531 10.7917C6.50531 8.42438 8.42438 6.50531 10.7917 6.50531C13.159 6.50531 15.078 8.42438 15.078 10.7917ZM14.3203 15.3847C13.3433 16.1364 12.1197 16.5833 10.7917 16.5833C7.59302 16.5833 5 13.9903 5 10.7917C5 7.59302 7.59302 5 10.7917 5C13.9903 5 16.5833 7.59302 16.5833 10.7917C16.5833 12.1197 16.1364 13.3433 15.3847 14.3203L18.7796 17.7151C19.0735 18.0091 19.0735 18.4856 18.7796 18.7796C18.4856 19.0735 18.0091 19.0735 17.7151 18.7796L14.3203 15.3847Z" fill="#212121"/>
</svg>
