<svg width="24" height="25" viewBox="0 0 24 25" fill="none" xmlns="http://www.w3.org/2000/svg">
<path fill-rule="evenodd" clip-rule="evenodd" d="M13.8098 11.0118L12.0339 7.65145L10.2753 11.0136L7.07982 11.432L9.604 14.0742L8.7242 17.5842L12.0279 15.8384L15.3078 17.5834L14.4498 14.0787L16.9423 11.4291L13.8098 11.0118ZM8.98396 9.17355L4.87025 9.71223C4.05985 9.81835 3.71312 10.7966 4.27679 11.3866L7.39868 14.6544L6.24187 19.2696C6.03223 20.106 6.9152 20.7948 7.67932 20.391L12.0247 18.0947L16.3377 20.3893C17.0996 20.7946 17.9837 20.1107 17.779 19.2745L16.6478 14.6544L19.7285 11.3796C20.2845 10.7886 19.9376 9.81837 19.132 9.71105L15.0971 9.17355L12.9134 5.04156C12.5377 4.3308 11.5159 4.33296 11.1433 5.04531L8.98396 9.17355Z" fill="#332929"/>
</svg>
