<svg width="24" height="25" viewBox="0 0 24 25" fill="none" xmlns="http://www.w3.org/2000/svg">
<path fill-rule="evenodd" clip-rule="evenodd" d="M8 7.47269V6.51025C8 5.40568 8.89543 4.51025 10 4.51025H14C15.1046 4.51025 16 5.40568 16 6.51025V7.47269H19C19.5523 7.47269 20 7.92041 20 8.47269C20 9.02498 19.5523 9.47269 19 9.47269H18.5633L17.1783 18.8029C17.0328 19.7833 16.1912 20.5093 15.2 20.5093H8.8C7.80885 20.5093 6.96721 19.7833 6.82167 18.8029L8.8 18.5093H15.2L16.5359 9.50928L8 9.51025L7.46405 9.50928L8.8 18.5093L6.82167 18.8029L5.43671 9.47269H5C4.44772 9.47269 4 9.02498 4 8.47269C4 7.92041 4.44772 7.47269 5 7.47269H8ZM10 6.51025H14V7.47269H10V6.51025Z" fill="#332929"/>
</svg>
