<svg width="24" height="24" viewBox="0 0 24 24" fill="none" xmlns="http://www.w3.org/2000/svg">
<path fill-rule="evenodd" clip-rule="evenodd" d="M9.41105 7.59727V6H14.5888V7.59727H9.41105ZM7.41105 7.59727V5.33333C7.41105 4.59695 8.008 4 8.74438 4H15.2554C15.9918 4 16.5888 4.59695 16.5888 5.33333V7.59727H17.5299H19.2348C19.8056 7.59727 20.2684 8.06001 20.2684 8.63082C20.2684 9.20164 19.8056 9.66438 19.2348 9.66438H18.7569L17.176 18.8918C17.0663 19.532 16.5113 20 15.8618 20H8.17683C7.51042 20 6.94634 19.508 6.85584 18.8477L5.59708 9.66438H4.765C4.19419 9.66438 3.73145 9.20164 3.73145 8.63082C3.73145 8.06001 4.19418 7.59727 4.765 7.59727H6.84231H7.41105ZM8.73462 9.66438H7.61579L8.75835 18H15.2996L16.7278 9.66438H15.2652C15.2619 9.66441 15.2587 9.66442 15.2554 9.66442H8.74438C8.74112 9.66442 8.73787 9.66441 8.73462 9.66438Z" fill="#C13524"/>
</svg>
