<svg width="205" height="99" viewBox="0 0 205 99" fill="none" xmlns="http://www.w3.org/2000/svg">
<path d="M1.2 81.6125H2.56V89.1325C2.56 89.9005 2.768 90.5192 3.184 90.9885C3.6 91.4578 4.208 91.6925 5.008 91.6925C5.808 91.6925 6.416 91.4578 6.832 90.9885C7.248 90.5192 7.456 89.9005 7.456 89.1325V81.6125H8.816V89.1325C8.816 89.8685 8.656 90.5298 8.336 91.1165C8.02667 91.6925 7.58933 92.1458 7.024 92.4765C6.45867 92.8072 5.78667 92.9725 5.008 92.9725C4.24 92.9725 3.568 92.8072 2.992 92.4765C2.42667 92.1458 1.984 91.6925 1.664 91.1165C1.35467 90.5298 1.2 89.8685 1.2 89.1325V81.6125ZM12.4156 96.3325H11.1356V85.4525H12.4156V86.7165C12.6823 86.2578 13.029 85.9058 13.4556 85.6605C13.893 85.4152 14.3836 85.2925 14.9276 85.2925C15.5996 85.2925 16.2076 85.4472 16.7516 85.7565C17.3063 86.0658 17.749 86.5085 18.0796 87.0845C18.4103 87.6498 18.5756 88.3325 18.5756 89.1325C18.5756 89.9218 18.4103 90.6045 18.0796 91.1805C17.749 91.7565 17.3063 92.1992 16.7516 92.5085C16.2076 92.8178 15.5996 92.9725 14.9276 92.9725C14.3836 92.9725 13.893 92.8498 13.4556 92.6045C13.029 92.3592 12.6823 92.0072 12.4156 91.5485V96.3325ZM17.2796 89.1325C17.2796 88.5672 17.1623 88.0872 16.9276 87.6925C16.7036 87.2978 16.3996 86.9992 16.0156 86.7965C15.6423 86.5938 15.2263 86.4925 14.7676 86.4925C14.3943 86.4925 14.0263 86.5938 13.6636 86.7965C13.301 86.9992 13.0023 87.2978 12.7676 87.6925C12.533 88.0872 12.4156 88.5672 12.4156 89.1325C12.4156 89.6978 12.533 90.1778 12.7676 90.5725C13.0023 90.9672 13.301 91.2658 13.6636 91.4685C14.0263 91.6712 14.3943 91.7725 14.7676 91.7725C15.2263 91.7725 15.6423 91.6712 16.0156 91.4685C16.3996 91.2658 16.7036 90.9672 16.9276 90.5725C17.1623 90.1778 17.2796 89.6978 17.2796 89.1325ZM20.3406 80.3325H21.6206V92.8125H20.3406V80.3325ZM23.3881 89.1325C23.3881 88.3858 23.5535 87.7245 23.8841 87.1485C24.2255 86.5725 24.6841 86.1192 25.2601 85.7885C25.8361 85.4578 26.4815 85.2925 27.1961 85.2925C27.9215 85.2925 28.5668 85.4578 29.1321 85.7885C29.7081 86.1192 30.1615 86.5725 30.4921 87.1485C30.8335 87.7245 31.0041 88.3858 31.0041 89.1325C31.0041 89.8685 30.8335 90.5298 30.4921 91.1165C30.1615 91.6925 29.7081 92.1458 29.1321 92.4765C28.5668 92.8072 27.9215 92.9725 27.1961 92.9725C26.4815 92.9725 25.8361 92.8072 25.2601 92.4765C24.6841 92.1458 24.2255 91.6925 23.8841 91.1165C23.5535 90.5298 23.3881 89.8685 23.3881 89.1325ZM24.6841 89.1325C24.6841 89.6445 24.7908 90.0978 25.0041 90.4925C25.2281 90.8872 25.5268 91.2018 25.9001 91.4365C26.2841 91.6605 26.7161 91.7725 27.1961 91.7725C27.6761 91.7725 28.1028 91.6605 28.4761 91.4365C28.8601 91.2018 29.1588 90.8872 29.3721 90.4925C29.5961 90.0978 29.7081 89.6445 29.7081 89.1325C29.7081 88.6205 29.5961 88.1672 29.3721 87.7725C29.1588 87.3672 28.8601 87.0525 28.4761 86.8285C28.1028 86.6045 27.6761 86.4925 27.1961 86.4925C26.7161 86.4925 26.2841 86.6045 25.9001 86.8285C25.5268 87.0525 25.2281 87.3672 25.0041 87.7725C24.7908 88.1672 24.6841 88.6205 24.6841 89.1325ZM33.1465 87.1485L32.5225 86.2045C32.7998 86.0018 33.1785 85.7992 33.6585 85.5965C34.1492 85.3938 34.7358 85.2925 35.4185 85.2925C36.2718 85.2925 36.9652 85.4898 37.4985 85.8845C38.0318 86.2685 38.2985 86.8178 38.2985 87.5325V92.8125H37.0185V91.8205C36.7838 92.2045 36.4318 92.4925 35.9625 92.6845C35.4932 92.8765 35.0345 92.9725 34.5865 92.9725C34.1385 92.9725 33.7172 92.8818 33.3225 92.7005C32.9385 92.5085 32.6292 92.2365 32.3945 91.8845C32.1598 91.5325 32.0425 91.1058 32.0425 90.6045C32.0425 89.8898 32.2932 89.3192 32.7945 88.8925C33.3065 88.4552 34.0158 88.2365 34.9225 88.2365C35.4132 88.2365 35.8292 88.2952 36.1705 88.4125C36.5225 88.5192 36.8052 88.6418 37.0185 88.7805V87.7085C37.0185 87.2072 36.8532 86.8658 36.5225 86.6845C36.2025 86.5032 35.8132 86.4125 35.3545 86.4125C34.7998 86.4125 34.3358 86.5032 33.9625 86.6845C33.5892 86.8658 33.3172 87.0205 33.1465 87.1485ZM33.3385 90.5405C33.3385 90.9672 33.4825 91.2978 33.7705 91.5325C34.0692 91.7565 34.4532 91.8685 34.9225 91.8685C35.5092 91.8685 36.0052 91.6925 36.4105 91.3405C36.8158 90.9885 37.0185 90.5192 37.0185 89.9325V89.6605C36.7198 89.5112 36.4158 89.4045 36.1065 89.3405C35.7972 89.2765 35.4718 89.2445 35.1305 89.2445C34.5118 89.2445 34.0585 89.3618 33.7705 89.5965C33.4825 89.8205 33.3385 90.1352 33.3385 90.5405ZM39.8256 89.1325C39.8256 88.3325 39.991 87.6498 40.3216 87.0845C40.6523 86.5085 41.095 86.0658 41.6496 85.7565C42.2043 85.4472 42.8123 85.2925 43.4736 85.2925C44.0176 85.2925 44.503 85.4152 44.9296 85.6605C45.367 85.9058 45.719 86.2578 45.9856 86.7165V80.3325H47.2656V92.8125H45.9856V91.5485C45.719 92.0072 45.367 92.3592 44.9296 92.6045C44.503 92.8498 44.0176 92.9725 43.4736 92.9725C42.8123 92.9725 42.2043 92.8178 41.6496 92.5085C41.095 92.1992 40.6523 91.7565 40.3216 91.1805C39.991 90.6045 39.8256 89.9218 39.8256 89.1325ZM41.1216 89.1325C41.1216 89.6978 41.2336 90.1778 41.4576 90.5725C41.6923 90.9672 42.0016 91.2658 42.3856 91.4685C42.7696 91.6712 43.1856 91.7725 43.6336 91.7725C44.007 91.7725 44.375 91.6712 44.7376 91.4685C45.1003 91.2658 45.399 90.9672 45.6336 90.5725C45.8683 90.1778 45.9856 89.6978 45.9856 89.1325C45.9856 88.5672 45.8683 88.0872 45.6336 87.6925C45.399 87.2978 45.1003 86.9992 44.7376 86.7965C44.375 86.5938 44.007 86.4925 43.6336 86.4925C43.1856 86.4925 42.7696 86.5938 42.3856 86.7965C42.0016 86.9992 41.6923 87.2978 41.4576 87.6925C41.2336 88.0872 41.1216 88.5672 41.1216 89.1325ZM54.7715 87.1485L54.1475 86.2045C54.4248 86.0018 54.8035 85.7992 55.2835 85.5965C55.7742 85.3938 56.3608 85.2925 57.0435 85.2925C57.8968 85.2925 58.5902 85.4898 59.1235 85.8845C59.6568 86.2685 59.9235 86.8178 59.9235 87.5325V92.8125H58.6435V91.8205C58.4088 92.2045 58.0568 92.4925 57.5875 92.6845C57.1182 92.8765 56.6595 92.9725 56.2115 92.9725C55.7635 92.9725 55.3422 92.8818 54.9475 92.7005C54.5635 92.5085 54.2542 92.2365 54.0195 91.8845C53.7848 91.5325 53.6675 91.1058 53.6675 90.6045C53.6675 89.8898 53.9182 89.3192 54.4195 88.8925C54.9315 88.4552 55.6408 88.2365 56.5475 88.2365C57.0382 88.2365 57.4542 88.2952 57.7955 88.4125C58.1475 88.5192 58.4302 88.6418 58.6435 88.7805V87.7085C58.6435 87.2072 58.4782 86.8658 58.1475 86.6845C57.8275 86.5032 57.4382 86.4125 56.9795 86.4125C56.4248 86.4125 55.9608 86.5032 55.5875 86.6845C55.2142 86.8658 54.9422 87.0205 54.7715 87.1485ZM54.9635 90.5405C54.9635 90.9672 55.1075 91.2978 55.3955 91.5325C55.6942 91.7565 56.0782 91.8685 56.5475 91.8685C57.1342 91.8685 57.6302 91.6925 58.0355 91.3405C58.4408 90.9885 58.6435 90.5192 58.6435 89.9325V89.6605C58.3448 89.5112 58.0408 89.4045 57.7315 89.3405C57.4222 89.2765 57.0968 89.2445 56.7555 89.2445C56.1368 89.2445 55.6835 89.3618 55.3955 89.5965C55.1075 89.8205 54.9635 90.1352 54.9635 90.5405ZM68.0875 96.3325H66.8075V85.4525H68.0875V86.7165C68.3542 86.2578 68.7008 85.9058 69.1275 85.6605C69.5648 85.4152 70.0555 85.2925 70.5995 85.2925C71.2715 85.2925 71.8795 85.4472 72.4235 85.7565C72.9782 86.0658 73.4208 86.5085 73.7515 87.0845C74.0822 87.6498 74.2475 88.3325 74.2475 89.1325C74.2475 89.9218 74.0822 90.6045 73.7515 91.1805C73.4208 91.7565 72.9782 92.1992 72.4235 92.5085C71.8795 92.8178 71.2715 92.9725 70.5995 92.9725C70.0555 92.9725 69.5648 92.8498 69.1275 92.6045C68.7008 92.3592 68.3542 92.0072 68.0875 91.5485V96.3325ZM72.9515 89.1325C72.9515 88.5672 72.8342 88.0872 72.5995 87.6925C72.3755 87.2978 72.0715 86.9992 71.6875 86.7965C71.3142 86.5938 70.8982 86.4925 70.4395 86.4925C70.0662 86.4925 69.6982 86.5938 69.3355 86.7965C68.9728 86.9992 68.6742 87.2978 68.4395 87.6925C68.2048 88.0872 68.0875 88.5672 68.0875 89.1325C68.0875 89.6978 68.2048 90.1778 68.4395 90.5725C68.6742 90.9672 68.9728 91.2658 69.3355 91.4685C69.6982 91.6712 70.0662 91.7725 70.4395 91.7725C70.8982 91.7725 71.3142 91.6712 71.6875 91.4685C72.0715 91.2658 72.3755 90.9672 72.5995 90.5725C72.8342 90.1778 72.9515 89.6978 72.9515 89.1325ZM80.7325 88.3325C80.7325 87.1058 80.2098 86.4925 79.1645 86.4925C78.6098 86.4925 78.1565 86.6685 77.8045 87.0205C77.4632 87.3618 77.2925 87.7992 77.2925 88.3325V92.8125H76.0125V80.3325H77.2925V86.6205C77.5165 86.2152 77.8152 85.8952 78.1885 85.6605C78.5725 85.4152 79.0045 85.2925 79.4845 85.2925C80.2418 85.2925 80.8498 85.5378 81.3085 86.0285C81.7778 86.5085 82.0125 87.2232 82.0125 88.1725V92.8125H80.7325V88.3325ZM83.7788 89.1325C83.7788 88.3858 83.9441 87.7245 84.2747 87.1485C84.6161 86.5725 85.0748 86.1192 85.6508 85.7885C86.2268 85.4578 86.8721 85.2925 87.5868 85.2925C88.3121 85.2925 88.9574 85.4578 89.5228 85.7885C90.0988 86.1192 90.5521 86.5725 90.8828 87.1485C91.2241 87.7245 91.3948 88.3858 91.3948 89.1325C91.3948 89.8685 91.2241 90.5298 90.8828 91.1165C90.5521 91.6925 90.0988 92.1458 89.5228 92.4765C88.9574 92.8072 88.3121 92.9725 87.5868 92.9725C86.8721 92.9725 86.2268 92.8072 85.6508 92.4765C85.0748 92.1458 84.6161 91.6925 84.2747 91.1165C83.9441 90.5298 83.7788 89.8685 83.7788 89.1325ZM85.0748 89.1325C85.0748 89.6445 85.1814 90.0978 85.3948 90.4925C85.6188 90.8872 85.9174 91.2018 86.2908 91.4365C86.6748 91.6605 87.1068 91.7725 87.5868 91.7725C88.0668 91.7725 88.4934 91.6605 88.8668 91.4365C89.2508 91.2018 89.5494 90.8872 89.7628 90.4925C89.9868 90.0978 90.0988 89.6445 90.0988 89.1325C90.0988 88.6205 89.9868 88.1672 89.7628 87.7725C89.5494 87.3672 89.2508 87.0525 88.8668 86.8285C88.4934 86.6045 88.0668 86.4925 87.5868 86.4925C87.1068 86.4925 86.6748 86.6045 86.2908 86.8285C85.9174 87.0525 85.6188 87.3672 85.3948 87.7725C85.1814 88.1672 85.0748 88.6205 85.0748 89.1325ZM92.0331 85.4525H93.2331V82.8925H94.5131V85.4525H95.7131V86.6525H94.5131V92.8125H93.2331V86.6525H92.0331V85.4525ZM96.3569 89.1325C96.3569 88.3858 96.5222 87.7245 96.8529 87.1485C97.1942 86.5725 97.6529 86.1192 98.2289 85.7885C98.8049 85.4578 99.4502 85.2925 100.165 85.2925C100.89 85.2925 101.536 85.4578 102.101 85.7885C102.677 86.1192 103.13 86.5725 103.461 87.1485C103.802 87.7245 103.973 88.3858 103.973 89.1325C103.973 89.8685 103.802 90.5298 103.461 91.1165C103.13 91.6925 102.677 92.1458 102.101 92.4765C101.536 92.8072 100.89 92.9725 100.165 92.9725C99.4502 92.9725 98.8049 92.8072 98.2289 92.4765C97.6529 92.1458 97.1942 91.6925 96.8529 91.1165C96.5222 90.5298 96.3569 89.8685 96.3569 89.1325ZM97.6529 89.1325C97.6529 89.6445 97.7595 90.0978 97.9729 90.4925C98.1969 90.8872 98.4955 91.2018 98.8689 91.4365C99.2529 91.6605 99.6849 91.7725 100.165 91.7725C100.645 91.7725 101.072 91.6605 101.445 91.4365C101.829 91.2018 102.128 90.8872 102.341 90.4925C102.565 90.0978 102.677 89.6445 102.677 89.1325C102.677 88.6205 102.565 88.1672 102.341 87.7725C102.128 87.3672 101.829 87.0525 101.445 86.8285C101.072 86.6045 100.645 86.4925 100.165 86.4925C99.6849 86.4925 99.2529 86.6045 98.8689 86.8285C98.4955 87.0525 98.1969 87.3672 97.9729 87.7725C97.7595 88.1672 97.6529 88.6205 97.6529 89.1325ZM109.888 89.1325C109.888 88.3858 110.053 87.7245 110.384 87.1485C110.725 86.5725 111.184 86.1192 111.76 85.7885C112.336 85.4578 112.981 85.2925 113.696 85.2925C114.421 85.2925 115.067 85.4578 115.632 85.7885C116.208 86.1192 116.661 86.5725 116.992 87.1485C117.333 87.7245 117.504 88.3858 117.504 89.1325C117.504 89.8685 117.333 90.5298 116.992 91.1165C116.661 91.6925 116.208 92.1458 115.632 92.4765C115.067 92.8072 114.421 92.9725 113.696 92.9725C112.981 92.9725 112.336 92.8072 111.76 92.4765C111.184 92.1458 110.725 91.6925 110.384 91.1165C110.053 90.5298 109.888 89.8685 109.888 89.1325ZM111.184 89.1325C111.184 89.6445 111.291 90.0978 111.504 90.4925C111.728 90.8872 112.027 91.2018 112.4 91.4365C112.784 91.6605 113.216 91.7725 113.696 91.7725C114.176 91.7725 114.603 91.6605 114.976 91.4365C115.36 91.2018 115.659 90.8872 115.872 90.4925C116.096 90.0978 116.208 89.6445 116.208 89.1325C116.208 88.6205 116.096 88.1672 115.872 87.7725C115.659 87.3672 115.36 87.0525 114.976 86.8285C114.603 86.6045 114.176 86.4925 113.696 86.4925C113.216 86.4925 112.784 86.6045 112.4 86.8285C112.027 87.0525 111.728 87.3672 111.504 87.7725C111.291 88.1672 111.184 88.6205 111.184 89.1325ZM118.703 85.4525H119.423V82.7325C119.423 81.8578 119.609 81.2125 119.983 80.7965C120.356 80.3805 120.879 80.1725 121.551 80.1725C121.892 80.1725 122.18 80.2418 122.415 80.3805C122.66 80.5085 122.841 80.6525 122.959 80.8125L122.255 81.8685C122.148 81.6872 122.02 81.5752 121.871 81.5325C121.732 81.4792 121.599 81.4525 121.471 81.4525C121.236 81.4525 121.049 81.5592 120.911 81.7725C120.772 81.9858 120.703 82.3592 120.703 82.8925V85.4525H122.383V86.6525H120.703V92.8125H119.423V86.6525H118.703V85.4525ZM134.478 85.4525L129.678 96.3325H128.238L130.254 91.7725L127.438 85.4525H128.958L131.022 90.5245L133.038 85.4525H134.478ZM134.81 89.1325C134.81 88.3858 134.975 87.7245 135.306 87.1485C135.647 86.5725 136.106 86.1192 136.682 85.7885C137.258 85.4578 137.903 85.2925 138.618 85.2925C139.343 85.2925 139.989 85.4578 140.554 85.7885C141.13 86.1192 141.583 86.5725 141.914 87.1485C142.255 87.7245 142.426 88.3858 142.426 89.1325C142.426 89.8685 142.255 90.5298 141.914 91.1165C141.583 91.6925 141.13 92.1458 140.554 92.4765C139.989 92.8072 139.343 92.9725 138.618 92.9725C137.903 92.9725 137.258 92.8072 136.682 92.4765C136.106 92.1458 135.647 91.6925 135.306 91.1165C134.975 90.5298 134.81 89.8685 134.81 89.1325ZM136.106 89.1325C136.106 89.6445 136.213 90.0978 136.426 90.4925C136.65 90.8872 136.949 91.2018 137.322 91.4365C137.706 91.6605 138.138 91.7725 138.618 91.7725C139.098 91.7725 139.525 91.6605 139.898 91.4365C140.282 91.2018 140.581 90.8872 140.794 90.4925C141.018 90.0978 141.13 89.6445 141.13 89.1325C141.13 88.6205 141.018 88.1672 140.794 87.7725C140.581 87.3672 140.282 87.0525 139.898 86.8285C139.525 86.6045 139.098 86.4925 138.618 86.4925C138.138 86.4925 137.706 86.6045 137.322 86.8285C136.949 87.0525 136.65 87.3672 136.426 87.7725C136.213 88.1672 136.106 88.6205 136.106 89.1325ZM145.464 89.9325C145.464 90.5192 145.598 90.9725 145.864 91.2925C146.131 91.6125 146.52 91.7725 147.032 91.7725C147.598 91.7725 148.051 91.6018 148.392 91.2605C148.734 90.9192 148.904 90.4765 148.904 89.9325V85.4525H150.184V92.8125H148.904V91.6605C148.414 92.5352 147.683 92.9725 146.712 92.9725C145.944 92.9725 145.331 92.7112 144.872 92.1885C144.414 91.6658 144.184 90.9672 144.184 90.0925V85.4525H145.464V89.9325ZM156.095 86.8605C155.924 86.7325 155.769 86.6418 155.631 86.5885C155.492 86.5245 155.316 86.4925 155.103 86.4925C154.623 86.4925 154.297 86.6685 154.127 87.0205C153.956 87.3618 153.871 87.7992 153.871 88.3325V92.8125H152.591V85.4525H153.871V86.3005C154.073 85.9912 154.313 85.7458 154.591 85.5645C154.868 85.3832 155.145 85.2925 155.423 85.2925C155.689 85.2925 155.935 85.3298 156.159 85.4045C156.393 85.4685 156.607 85.6018 156.799 85.8045L156.095 86.8605ZM162.232 89.1325C162.232 88.3325 162.397 87.6498 162.728 87.0845C163.059 86.5085 163.501 86.0658 164.056 85.7565C164.611 85.4472 165.219 85.2925 165.88 85.2925C166.424 85.2925 166.909 85.4152 167.336 85.6605C167.773 85.9058 168.125 86.2578 168.392 86.7165V80.3325H169.672V92.8125H168.392V91.5485C168.125 92.0072 167.773 92.3592 167.336 92.6045C166.909 92.8498 166.424 92.9725 165.88 92.9725C165.219 92.9725 164.611 92.8178 164.056 92.5085C163.501 92.1992 163.059 91.7565 162.728 91.1805C162.397 90.6045 162.232 89.9218 162.232 89.1325ZM163.528 89.1325C163.528 89.6978 163.64 90.1778 163.864 90.5725C164.099 90.9672 164.408 91.2658 164.792 91.4685C165.176 91.6712 165.592 91.7725 166.04 91.7725C166.413 91.7725 166.781 91.6712 167.144 91.4685C167.507 91.2658 167.805 90.9672 168.04 90.5725C168.275 90.1778 168.392 89.6978 168.392 89.1325C168.392 88.5672 168.275 88.0872 168.04 87.6925C167.805 87.2978 167.507 86.9992 167.144 86.7965C166.781 86.5938 166.413 86.4925 166.04 86.4925C165.592 86.4925 165.176 86.5938 164.792 86.7965C164.408 86.9992 164.099 87.2978 163.864 87.6925C163.64 88.0872 163.528 88.5672 163.528 89.1325ZM171.997 82.4125C171.997 82.1672 172.082 81.9592 172.253 81.7885C172.434 81.6178 172.642 81.5325 172.877 81.5325C173.122 81.5325 173.33 81.6178 173.501 81.7885C173.672 81.9592 173.757 82.1672 173.757 82.4125C173.757 82.6472 173.672 82.8552 173.501 83.0365C173.33 83.2072 173.122 83.2925 172.877 83.2925C172.642 83.2925 172.434 83.2072 172.253 83.0365C172.082 82.8552 171.997 82.6472 171.997 82.4125ZM172.237 85.4525H173.517V92.8125H172.237V85.4525ZM176.457 90.5565C176.681 90.8978 176.953 91.1912 177.273 91.4365C177.604 91.6818 177.998 91.8045 178.457 91.8045C178.82 91.8045 179.102 91.7245 179.305 91.5645C179.518 91.3938 179.625 91.1645 179.625 90.8765C179.625 90.6205 179.54 90.4072 179.369 90.2365C179.209 90.0552 179.001 89.9058 178.745 89.7885C178.489 89.6605 178.217 89.5432 177.929 89.4365C177.609 89.3085 177.284 89.1592 176.953 88.9885C176.633 88.8072 176.361 88.5778 176.137 88.3005C175.924 88.0125 175.817 87.6552 175.817 87.2285C175.817 86.7912 175.929 86.4285 176.153 86.1405C176.388 85.8525 176.686 85.6392 177.049 85.5005C177.422 85.3618 177.806 85.2925 178.201 85.2925C178.788 85.2925 179.321 85.4312 179.801 85.7085C180.281 85.9858 180.633 86.3272 180.857 86.7325L179.833 87.3885C179.63 87.1112 179.374 86.8818 179.065 86.7005C178.766 86.5192 178.425 86.4285 178.041 86.4285C177.774 86.4285 177.545 86.4872 177.353 86.6045C177.161 86.7218 177.065 86.9032 177.065 87.1485C177.065 87.4472 177.22 87.6925 177.529 87.8845C177.849 88.0658 178.206 88.2365 178.601 88.3965C179.028 88.5672 179.417 88.7538 179.769 88.9565C180.121 89.1485 180.398 89.3832 180.601 89.6605C180.814 89.9378 180.921 90.2952 180.921 90.7325C180.921 91.3725 180.686 91.9058 180.217 92.3325C179.758 92.7592 179.15 92.9725 178.393 92.9725C177.902 92.9725 177.46 92.8872 177.065 92.7165C176.67 92.5352 176.334 92.3058 176.057 92.0285C175.79 91.7512 175.588 91.4685 175.449 91.1805L176.457 90.5565ZM187.326 88.3325C187.326 87.1058 186.804 86.4925 185.758 86.4925C185.204 86.4925 184.75 86.6685 184.398 87.0205C184.057 87.3618 183.886 87.7992 183.886 88.3325V92.8125H182.606V80.3325H183.886V86.6205C184.11 86.2152 184.409 85.8952 184.782 85.6605C185.166 85.4152 185.598 85.2925 186.078 85.2925C186.836 85.2925 187.444 85.5378 187.902 86.0285C188.372 86.5085 188.606 87.2232 188.606 88.1725V92.8125H187.326V88.3325Z" fill="black"/>
<path fill-rule="evenodd" clip-rule="evenodd" d="M97.1574 24.6595H102.429C103.423 24.6595 104.367 24.9881 105.131 25.565C105.132 25.5658 105.134 25.5663 105.135 25.5663C105.137 25.5663 105.139 25.5671 105.14 25.5686L105.146 25.5757L105.147 25.5769L105.16 25.5871C105.161 25.5878 105.161 25.5893 105.159 25.5893C105.158 25.5893 105.158 25.5905 105.158 25.5914L110.151 31.704C110.863 32.5748 111.928 33.08 113.052 33.08H120.233C122.71 33.08 124.718 35.0879 124.718 37.5647V60.138C124.718 62.6148 122.71 64.6227 120.233 64.6227H79.5055C77.0287 64.6227 75.0208 62.6148 75.0208 60.138V37.5647C75.0208 35.0879 77.0287 33.08 79.5055 33.08H86.4607C87.5765 33.08 88.6342 32.5826 89.3457 31.7231L94.4237 25.5895L94.4236 25.5893C94.4235 25.5893 94.4235 25.5891 94.4236 25.5891L94.425 25.588L94.4251 25.5878L94.4391 25.571C94.4415 25.568 94.4452 25.5663 94.4491 25.5663C94.4519 25.5663 94.4547 25.5653 94.457 25.5636C95.2202 24.9881 96.1631 24.6595 97.1574 24.6595ZM110.464 25.1588L110.678 25.5893C111.591 27.4306 113.469 28.5953 115.524 28.5953H120.233C125.187 28.5953 129.203 32.6111 129.203 37.5647V60.138C129.203 65.0916 125.187 69.1073 120.233 69.1073H79.5055C74.5519 69.1073 70.5361 65.0916 70.5361 60.138V37.5647C70.5361 32.6111 74.5519 28.5953 79.5055 28.5953H84.209C86.2302 28.5953 88.0678 27.4225 88.9189 25.5893L89.0221 25.3671C90.4922 22.2006 93.6662 20.1748 97.1574 20.1748H102.429C105.837 20.1748 108.95 22.1059 110.464 25.1588ZM106.088 49.4113C106.088 52.8457 103.304 55.6299 99.8693 55.6299C96.4348 55.6299 93.6507 52.8457 93.6507 49.4113C93.6507 45.9768 96.4348 43.1927 99.8693 43.1927C103.304 43.1927 106.088 45.9768 106.088 49.4113ZM110.573 49.4113C110.573 55.3226 105.781 60.1146 99.8693 60.1146C93.958 60.1146 89.166 55.3226 89.166 49.4113C89.166 43.5 93.958 38.708 99.8693 38.708C105.781 38.708 110.573 43.5 110.573 49.4113Z" fill="#332929"/>
</svg>
